<svg xmlns="http://www.w3.org/2000/svg" xmlns:xlink="http://www.w3.org/1999/xlink" viewBox="0 0 189.97 266.39"><defs><linearGradient id="a" x1="90.39" y1="-18.39" x2="99.4" y2="-18.39" gradientTransform="translate(-4.22 113.23) rotate(-73.9)" gradientUnits="userSpaceOnUse"><stop offset="0" stop-color="lime"/><stop offset="0.13" stop-color="#00ff02"/><stop offset="0.2" stop-color="#02fe0a"/><stop offset="0.26" stop-color="#04fc18"/><stop offset="0.31" stop-color="#08fa2c"/><stop offset="0.35" stop-color="#0df645"/><stop offset="0.39" stop-color="#12f365"/><stop offset="0.43" stop-color="#19ee8a"/><stop offset="0.47" stop-color="#21e9b4"/><stop offset="0.5" stop-color="#29e3e2"/><stop offset="0.51" stop-color="#36e3d4"/><stop offset="0.55" stop-color="#5ce2aa"/><stop offset="0.59" stop-color="#7ee285"/><stop offset="0.63" stop-color="#9ae166"/><stop offset="0.68" stop-color="#b1e14d"/><stop offset="0.73" stop-color="#c3e039"/><stop offset="0.79" stop-color="#d0e02b"/><stop offset="0.86" stop-color="#d7e023"/><stop offset="1" stop-color="#d9e021"/></linearGradient><linearGradient id="b" x1="89.89" y1="-18.39" x2="99.9" y2="-18.39" xlink:href="#a"/><linearGradient id="c" x1="73.49" y1="7.47" x2="82.51" y2="7.47" gradientTransform="translate(-1.6 110.68) rotate(-73.9)" xlink:href="#a"/><linearGradient id="d" x1="72.99" y1="7.47" x2="83.01" y2="7.47" gradientTransform="translate(-1.6 110.68) rotate(-73.9)" xlink:href="#a"/><linearGradient id="e" x1="95.98" y1="0.98" x2="104.99" y2="0.98" gradientTransform="translate(-4.37 110.84) rotate(-73.9)" xlink:href="#a"/><linearGradient id="f" x1="95.48" y1="0.98" x2="105.49" y2="0.98" gradientTransform="translate(-4.37 110.84) rotate(-73.9)" xlink:href="#a"/><linearGradient id="g" x1="56.6" y1="33.33" x2="65.61" y2="33.33" gradientTransform="translate(1.03 108.13) rotate(-73.9)" xlink:href="#a"/><linearGradient id="h" x1="56.1" y1="33.33" x2="66.11" y2="33.33" gradientTransform="translate(1.03 108.13) rotate(-73.9)" xlink:href="#a"/><linearGradient id="i" x1="79.08" y1="26.84" x2="88.1" y2="26.84" gradientTransform="matrix(0.28, -0.96, 0.96, 0.28, -1.74, 108.3)" xlink:href="#a"/><linearGradient id="j" x1="78.58" y1="26.84" x2="88.6" y2="26.84" gradientTransform="matrix(0.28, -0.96, 0.96, 0.28, -1.74, 108.3)" xlink:href="#a"/><linearGradient id="k" x1="101.57" y1="20.35" x2="110.59" y2="20.35" gradientTransform="translate(-4.51 108.46) rotate(-73.9)" xlink:href="#a"/><linearGradient id="l" x1="101.07" y1="20.35" x2="111.09" y2="20.35" gradientTransform="translate(-4.51 108.46) rotate(-73.9)" xlink:href="#a"/><linearGradient id="m" x1="39.7" y1="59.2" x2="48.72" y2="59.2" gradientTransform="translate(3.65 105.59) rotate(-73.9)" xlink:href="#a"/><linearGradient id="n" x1="39.2" y1="59.2" x2="49.22" y2="59.2" gradientTransform="translate(3.65 105.59) rotate(-73.9)" xlink:href="#a"/><linearGradient id="o" x1="62.19" y1="52.71" x2="71.2" y2="52.71" gradientTransform="translate(0.88 105.75) rotate(-73.9)" xlink:href="#a"/><linearGradient id="p" x1="61.69" y1="52.71" x2="71.7" y2="52.71" gradientTransform="translate(0.88 105.75) rotate(-73.9)" xlink:href="#a"/><linearGradient id="q" x1="84.68" y1="46.21" x2="93.69" y2="46.21" gradientTransform="matrix(0.28, -0.96, 0.96, 0.28, -1.88, 105.92)" xlink:href="#a"/><linearGradient id="r" x1="84.18" y1="46.21" x2="94.19" y2="46.21" gradientTransform="matrix(0.28, -0.96, 0.96, 0.28, -1.88, 105.92)" xlink:href="#a"/><linearGradient id="s" x1="107.16" y1="39.72" x2="116.18" y2="39.72" gradientTransform="translate(-4.65 106.08) rotate(-73.9)" xlink:href="#a"/><linearGradient id="t" x1="106.66" y1="39.72" x2="116.68" y2="39.72" gradientTransform="translate(-4.65 106.08) rotate(-73.9)" xlink:href="#a"/><linearGradient id="u" x1="22.8" y1="85.06" x2="31.82" y2="85.06" gradientTransform="translate(6.28 103.04) rotate(-73.9)" xlink:href="#a"/><linearGradient id="v" x1="22.3" y1="85.06" x2="32.32" y2="85.06" gradientTransform="translate(6.28 103.04) rotate(-73.9)" xlink:href="#a"/><linearGradient id="w" x1="45.29" y1="78.57" x2="54.31" y2="78.57" gradientTransform="translate(3.51 103.2) rotate(-73.9)" xlink:href="#a"/><linearGradient id="x" x1="44.79" y1="78.57" x2="54.81" y2="78.57" gradientTransform="translate(3.51 103.2) rotate(-73.9)" xlink:href="#a"/><linearGradient id="y" x1="67.78" y1="72.07" x2="76.8" y2="72.07" gradientTransform="translate(0.74 103.37) rotate(-73.9)" xlink:href="#a"/><linearGradient id="z" x1="67.28" y1="72.07" x2="77.3" y2="72.07" gradientTransform="translate(0.74 103.37) rotate(-73.9)" xlink:href="#a"/><linearGradient id="aa" x1="90.27" y1="65.58" x2="99.28" y2="65.58" gradientTransform="translate(-2.02 103.53) rotate(-73.9)" xlink:href="#a"/><linearGradient id="ab" x1="89.77" y1="65.58" x2="99.78" y2="65.58" gradientTransform="translate(-2.02 103.53) rotate(-73.9)" xlink:href="#a"/><linearGradient id="ac" x1="112.76" y1="59.09" x2="121.77" y2="59.09" gradientTransform="translate(-4.79 103.7) rotate(-73.9)" xlink:href="#a"/><linearGradient id="ad" x1="112.26" y1="59.09" x2="122.27" y2="59.09" gradientTransform="translate(-4.79 103.7) rotate(-73.9)" xlink:href="#a"/><linearGradient id="ae" x1="5.91" y1="110.92" x2="14.92" y2="110.92" gradientTransform="translate(8.9 100.49) rotate(-73.9)" xlink:href="#a"/><linearGradient id="af" x1="5.41" y1="110.92" x2="15.42" y2="110.92" gradientTransform="translate(8.9 100.49) rotate(-73.9)" xlink:href="#a"/><linearGradient id="ag" x1="28.4" y1="104.43" x2="37.41" y2="104.43" gradientTransform="translate(6.13 100.66) rotate(-73.9)" xlink:href="#a"/><linearGradient id="ah" x1="27.9" y1="104.43" x2="37.91" y2="104.43" gradientTransform="translate(6.13 100.66) rotate(-73.9)" xlink:href="#a"/><linearGradient id="ai" x1="50.89" y1="97.94" x2="59.9" y2="97.94" gradientTransform="translate(3.37 100.82) rotate(-73.9)" xlink:href="#a"/><linearGradient id="aj" x1="50.39" y1="97.94" x2="60.4" y2="97.94" gradientTransform="translate(3.37 100.82) rotate(-73.9)" xlink:href="#a"/><linearGradient id="ak" x1="73.37" y1="91.44" x2="82.39" y2="91.44" gradientTransform="translate(0.6 100.99) rotate(-73.9)" xlink:href="#a"/><linearGradient id="al" x1="72.87" y1="91.44" x2="82.89" y2="91.44" gradientTransform="translate(0.6 100.99) rotate(-73.9)" xlink:href="#a"/><linearGradient id="am" x1="95.86" y1="84.95" x2="104.88" y2="84.95" gradientTransform="translate(-2.16 101.15) rotate(-73.9)" xlink:href="#a"/><linearGradient id="an" x1="95.36" y1="84.95" x2="105.38" y2="84.95" gradientTransform="translate(-2.16 101.15) rotate(-73.9)" xlink:href="#a"/><linearGradient id="ao" x1="118.35" y1="78.46" x2="127.36" y2="78.46" gradientTransform="translate(-4.93 101.31) rotate(-73.9)" xlink:href="#a"/><linearGradient id="ap" x1="117.85" y1="78.46" x2="127.86" y2="78.46" gradientTransform="translate(-4.93 101.31) rotate(-73.9)" xlink:href="#a"/></defs><title>Ativo 11</title><ellipse cx="117.01" cy="262.36" rx="4.55" ry="3.92" transform="translate(-93 66.35) rotate(-22.94)" style="fill:gray"/><ellipse cx="130.71" cy="234.67" rx="4.55" ry="3.92" transform="translate(-81.12 69.49) rotate(-22.94)" style="fill:gray"/><ellipse cx="109.15" cy="243.79" rx="4.55" ry="3.92" transform="translate(-86.38 61.82) rotate(-22.94)" style="fill:gray"/><ellipse cx="144.41" cy="206.98" rx="4.55" ry="3.92" transform="translate(-69.25 72.64) rotate(-22.94)" style="fill:gray"/><ellipse cx="122.85" cy="216.11" rx="4.55" ry="3.92" transform="translate(-74.51 64.97) rotate(-22.94)" style="fill:gray"/><ellipse cx="101.3" cy="225.23" rx="4.55" ry="3.92" transform="translate(-79.77 57.29) rotate(-22.94)" style="fill:gray"/><ellipse cx="158.11" cy="179.29" rx="4.55" ry="3.92" transform="translate(-57.37 75.79) rotate(-22.94)" style="fill:gray"/><ellipse cx="136.55" cy="188.42" rx="4.55" ry="3.92" transform="translate(-62.63 68.11) rotate(-22.94)" style="fill:gray"/><ellipse cx="114.99" cy="197.54" rx="4.55" ry="3.92" transform="translate(-67.89 60.43) rotate(-22.94)" style="fill:gray"/><ellipse cx="93.44" cy="206.66" rx="4.55" ry="3.92" transform="translate(-73.15 52.75) rotate(-22.94)" style="fill:gray"/><ellipse cx="171.81" cy="151.61" rx="4.55" ry="3.92" transform="translate(-45.5 78.94) rotate(-22.94)" style="fill:gray"/><ellipse cx="150.25" cy="160.73" rx="4.55" ry="3.92" transform="translate(-50.76 71.26) rotate(-22.94)" style="fill:gray"/><ellipse cx="128.69" cy="169.85" rx="4.55" ry="3.92" transform="translate(-56.02 63.58) rotate(-22.94)" style="fill:gray"/><ellipse cx="107.14" cy="178.97" rx="4.55" ry="3.92" transform="translate(-61.28 55.91) rotate(-22.94)" style="fill:gray"/><ellipse cx="85.58" cy="188.1" rx="4.55" ry="3.92" transform="translate(-66.54 48.23) rotate(-22.94)" style="fill:gray"/><ellipse cx="185.51" cy="123.92" rx="4.55" ry="3.92" transform="matrix(0.92, -0.39, 0.39, 0.92, -33.63, 82.09)" style="fill:gray"/><ellipse cx="163.95" cy="133.04" rx="4.55" ry="3.92" transform="translate(-38.89 74.41) rotate(-22.94)" style="fill:gray"/><ellipse cx="142.39" cy="142.16" rx="4.55" ry="3.92" transform="translate(-44.15 66.73) rotate(-22.94)" style="fill:gray"/><ellipse cx="120.84" cy="151.28" rx="4.55" ry="3.92" transform="translate(-49.4 59.05) rotate(-22.94)" style="fill:gray"/><ellipse cx="99.28" cy="160.41" rx="4.55" ry="3.92" transform="translate(-54.66 51.37) rotate(-22.94)" style="fill:gray"/><ellipse cx="77.72" cy="169.53" rx="4.55" ry="3.92" transform="translate(-59.92 43.7) rotate(-22.94)" style="fill:gray"/><ellipse cx="4.43" cy="16.96" rx="3.92" ry="4.55" transform="translate(-1.97 0.64) rotate(-6.79)" style="stroke-miterlimit:10;fill:url(#a);stroke:url(#b)"/><ellipse cx="27.22" cy="37.82" rx="3.92" ry="4.55" transform="translate(-4.28 3.48) rotate(-6.79)" style="stroke-miterlimit:10;fill:url(#c);stroke:url(#d)"/><ellipse cx="24.45" cy="14.57" rx="3.92" ry="4.55" transform="translate(-1.55 2.99) rotate(-6.79)" style="stroke-miterlimit:10;fill:url(#e);stroke:url(#f)"/><ellipse cx="50" cy="58.68" rx="3.92" ry="4.55" transform="translate(-6.58 6.32) rotate(-6.79)" style="stroke-miterlimit:10;fill:url(#g);stroke:url(#h)"/><ellipse cx="47.24" cy="35.43" rx="3.92" ry="4.55" transform="translate(-3.86 5.83) rotate(-6.79)" style="stroke-miterlimit:10;fill:url(#i);stroke:url(#j)"/><ellipse cx="44.47" cy="12.19" rx="3.92" ry="4.55" transform="translate(-1.13 5.34) rotate(-6.79)" style="stroke-miterlimit:10;fill:url(#k);stroke:url(#l)"/><ellipse cx="72.79" cy="79.54" rx="3.92" ry="4.55" transform="translate(-8.89 9.16) rotate(-6.79)" style="stroke-miterlimit:10;fill:url(#m);stroke:url(#n)"/><ellipse cx="70.03" cy="56.29" rx="3.92" ry="4.55" transform="translate(-6.16 8.67) rotate(-6.79)" style="stroke-miterlimit:10;fill:url(#o);stroke:url(#p)"/><ellipse cx="67.26" cy="33.05" rx="3.92" ry="4.55" transform="translate(-3.43 8.18) rotate(-6.79)" style="stroke-miterlimit:10;fill:url(#q);stroke:url(#r)"/><ellipse cx="64.49" cy="9.81" rx="3.92" ry="4.55" transform="translate(-0.71 7.69) rotate(-6.79)" style="stroke-miterlimit:10;fill:url(#s);stroke:url(#t)"/><ellipse cx="95.57" cy="100.4" rx="3.92" ry="4.55" transform="matrix(0.99, -0.12, 0.12, 0.99, -11.2, 12)" style="stroke-miterlimit:10;fill:url(#u);stroke:url(#v)"/><ellipse cx="92.81" cy="77.15" rx="3.92" ry="4.55" transform="translate(-8.47 11.51) rotate(-6.79)" style="stroke-miterlimit:10;fill:url(#w);stroke:url(#x)"/><ellipse cx="90.04" cy="53.91" rx="3.92" ry="4.55" transform="translate(-5.74 11.02) rotate(-6.79)" style="stroke-miterlimit:10;fill:url(#y);stroke:url(#z)"/><ellipse cx="87.28" cy="30.67" rx="3.92" ry="4.55" transform="translate(-3.01 10.53) rotate(-6.79)" style="stroke-miterlimit:10;fill:url(#aa);stroke:url(#ab)"/><ellipse cx="84.51" cy="7.43" rx="3.92" ry="4.55" transform="translate(-0.29 10.04) rotate(-6.79)" style="stroke-miterlimit:10;fill:url(#ac);stroke:url(#ad)"/><ellipse cx="118.36" cy="121.26" rx="3.92" ry="4.55" transform="translate(-13.5 14.84) rotate(-6.79)" style="stroke-miterlimit:10;fill:url(#ae);stroke:url(#af)"/><ellipse cx="115.59" cy="98.01" rx="3.92" ry="4.55" transform="translate(-10.77 14.35) rotate(-6.79)" style="stroke-miterlimit:10;fill:url(#ag);stroke:url(#ah)"/><ellipse cx="112.83" cy="74.77" rx="3.92" ry="4.55" transform="translate(-8.05 13.86) rotate(-6.79)" style="stroke-miterlimit:10;fill:url(#ai);stroke:url(#aj)"/><ellipse cx="110.06" cy="51.53" rx="3.92" ry="4.55" transform="translate(-5.32 13.37) rotate(-6.79)" style="stroke-miterlimit:10;fill:url(#ak);stroke:url(#al)"/><ellipse cx="107.3" cy="28.29" rx="3.92" ry="4.55" transform="translate(-2.59 12.88) rotate(-6.79)" style="stroke-miterlimit:10;fill:url(#am);stroke:url(#an)"/><ellipse cx="104.53" cy="5.04" rx="3.92" ry="4.55" transform="translate(0.14 12.39) rotate(-6.79)" style="stroke-miterlimit:10;fill:url(#ao);stroke:url(#ap)"/></svg>