<svg xmlns="http://www.w3.org/2000/svg" xmlns:xlink="http://www.w3.org/1999/xlink" viewBox="0 0 135.6 304.08"><defs><linearGradient id="a" x1="48.23" y1="157.1" x2="57.24" y2="157.1" gradientTransform="matrix(0.96, 0.28, -0.28, 0.96, 24.77, -18.25)" gradientUnits="userSpaceOnUse"><stop offset="0" stop-color="lime"/><stop offset="0.13" stop-color="#00ff02"/><stop offset="0.2" stop-color="#02fe0a"/><stop offset="0.26" stop-color="#04fc18"/><stop offset="0.31" stop-color="#08fa2c"/><stop offset="0.35" stop-color="#0df645"/><stop offset="0.39" stop-color="#12f365"/><stop offset="0.43" stop-color="#19ee8a"/><stop offset="0.47" stop-color="#21e9b4"/><stop offset="0.5" stop-color="#29e3e2"/><stop offset="0.51" stop-color="#36e3d4"/><stop offset="0.55" stop-color="#5ce2aa"/><stop offset="0.59" stop-color="#7ee285"/><stop offset="0.63" stop-color="#9ae166"/><stop offset="0.68" stop-color="#b1e14d"/><stop offset="0.73" stop-color="#c3e039"/><stop offset="0.79" stop-color="#d0e02b"/><stop offset="0.86" stop-color="#d7e023"/><stop offset="1" stop-color="#d9e021"/></linearGradient><linearGradient id="b" x1="47.73" y1="157.1" x2="57.74" y2="157.1" xlink:href="#a"/><linearGradient id="c" x1="31.33" y1="182.96" x2="40.35" y2="182.96" gradientTransform="translate(42.77 -7.99) rotate(16.1)" xlink:href="#a"/><linearGradient id="d" x1="30.83" y1="182.96" x2="40.85" y2="182.96" gradientTransform="translate(42.77 -7.99) rotate(16.1)" xlink:href="#a"/><linearGradient id="e" x1="53.82" y1="176.47" x2="62.83" y2="176.47" gradientTransform="translate(37.51 -22.78) rotate(16.1)" xlink:href="#a"/><linearGradient id="f" x1="53.32" y1="176.47" x2="63.33" y2="176.47" gradientTransform="translate(37.51 -22.78) rotate(16.1)" xlink:href="#a"/><linearGradient id="g" x1="14.44" y1="208.82" x2="23.45" y2="208.82" gradientTransform="translate(60.76 2.26) rotate(16.1)" xlink:href="#a"/><linearGradient id="h" x1="13.94" y1="208.82" x2="23.95" y2="208.82" gradientTransform="translate(60.76 2.26) rotate(16.1)" xlink:href="#a"/><linearGradient id="i" x1="36.92" y1="202.33" x2="45.94" y2="202.33" gradientTransform="matrix(0.96, 0.28, -0.28, 0.96, 55.5, -12.52)" xlink:href="#a"/><linearGradient id="j" x1="36.42" y1="202.33" x2="46.44" y2="202.33" gradientTransform="matrix(0.96, 0.28, -0.28, 0.96, 55.5, -12.52)" xlink:href="#a"/><linearGradient id="k" x1="59.41" y1="195.84" x2="68.42" y2="195.84" gradientTransform="translate(50.24 -27.31) rotate(16.1)" xlink:href="#a"/><linearGradient id="l" x1="58.91" y1="195.84" x2="68.92" y2="195.84" gradientTransform="translate(50.24 -27.31) rotate(16.1)" xlink:href="#a"/><linearGradient id="m" x1="-2.46" y1="234.69" x2="6.56" y2="234.69" gradientTransform="matrix(0.96, 0.28, -0.28, 0.96, 78.76, 12.52)" xlink:href="#a"/><linearGradient id="n" x1="-2.96" y1="234.69" x2="7.06" y2="234.69" gradientTransform="matrix(0.96, 0.28, -0.28, 0.96, 78.76, 12.52)" xlink:href="#a"/><linearGradient id="o" x1="20.03" y1="228.19" x2="29.04" y2="228.19" gradientTransform="matrix(0.96, 0.28, -0.28, 0.96, 73.5, -2.27)" xlink:href="#a"/><linearGradient id="p" x1="19.53" y1="228.19" x2="29.54" y2="228.19" gradientTransform="matrix(0.96, 0.28, -0.28, 0.96, 73.5, -2.27)" xlink:href="#a"/><linearGradient id="q" x1="42.51" y1="221.7" x2="51.53" y2="221.7" gradientTransform="translate(68.24 -17.06) rotate(16.1)" xlink:href="#a"/><linearGradient id="r" x1="42.01" y1="221.7" x2="52.03" y2="221.7" gradientTransform="translate(68.24 -17.06) rotate(16.1)" xlink:href="#a"/><linearGradient id="s" x1="65" y1="215.21" x2="74.02" y2="215.21" gradientTransform="matrix(0.96, 0.28, -0.28, 0.96, 62.98, -31.84)" xlink:href="#a"/><linearGradient id="t" x1="64.5" y1="215.21" x2="74.52" y2="215.21" gradientTransform="matrix(0.96, 0.28, -0.28, 0.96, 62.98, -31.84)" xlink:href="#a"/><linearGradient id="u" x1="-19.36" y1="260.55" x2="-10.34" y2="260.55" gradientTransform="matrix(0.96, 0.28, -0.28, 0.96, 96.76, 22.77)" xlink:href="#a"/><linearGradient id="v" x1="-19.86" y1="260.55" x2="-9.84" y2="260.55" gradientTransform="matrix(0.96, 0.28, -0.28, 0.96, 96.76, 22.77)" xlink:href="#a"/><linearGradient id="w" x1="3.13" y1="254.05" x2="12.15" y2="254.05" gradientTransform="translate(91.5 7.99) rotate(16.1)" xlink:href="#a"/><linearGradient id="x" x1="2.63" y1="254.05" x2="12.65" y2="254.05" gradientTransform="translate(91.5 7.99) rotate(16.1)" xlink:href="#a"/><linearGradient id="y" x1="25.62" y1="247.56" x2="34.64" y2="247.56" gradientTransform="translate(86.24 -6.8) rotate(16.1)" xlink:href="#a"/><linearGradient id="z" x1="25.12" y1="247.56" x2="35.14" y2="247.56" gradientTransform="translate(86.24 -6.8) rotate(16.1)" xlink:href="#a"/><linearGradient id="aa" x1="48.11" y1="241.07" x2="57.12" y2="241.07" gradientTransform="translate(80.98 -21.59) rotate(16.1)" xlink:href="#a"/><linearGradient id="ab" x1="47.61" y1="241.07" x2="57.62" y2="241.07" gradientTransform="translate(80.98 -21.59) rotate(16.1)" xlink:href="#a"/><linearGradient id="ac" x1="70.6" y1="234.58" x2="79.61" y2="234.58" gradientTransform="translate(75.71 -36.37) rotate(16.1)" xlink:href="#a"/><linearGradient id="ad" x1="70.1" y1="234.58" x2="80.11" y2="234.58" gradientTransform="translate(75.71 -36.37) rotate(16.1)" xlink:href="#a"/><linearGradient id="ae" x1="-36.25" y1="286.41" x2="-27.24" y2="286.41" gradientTransform="translate(114.76 33.03) rotate(16.1)" xlink:href="#a"/><linearGradient id="af" x1="-36.75" y1="286.41" x2="-26.74" y2="286.41" gradientTransform="translate(114.76 33.03) rotate(16.1)" xlink:href="#a"/><linearGradient id="ag" x1="-13.77" y1="279.92" x2="-4.75" y2="279.92" gradientTransform="translate(109.5 18.24) rotate(16.1)" xlink:href="#a"/><linearGradient id="ah" x1="-14.27" y1="279.92" x2="-4.25" y2="279.92" gradientTransform="translate(109.5 18.24) rotate(16.1)" xlink:href="#a"/><linearGradient id="ai" x1="8.72" y1="273.42" x2="17.74" y2="273.42" gradientTransform="translate(104.24 3.45) rotate(16.1)" xlink:href="#a"/><linearGradient id="aj" x1="8.22" y1="273.42" x2="18.24" y2="273.42" gradientTransform="translate(104.24 3.45) rotate(16.1)" xlink:href="#a"/><linearGradient id="ak" x1="31.21" y1="266.93" x2="40.23" y2="266.93" gradientTransform="matrix(0.96, 0.28, -0.28, 0.96, 98.97, -11.33)" xlink:href="#a"/><linearGradient id="al" x1="30.71" y1="266.93" x2="40.73" y2="266.93" gradientTransform="matrix(0.96, 0.28, -0.28, 0.96, 98.97, -11.33)" xlink:href="#a"/><linearGradient id="am" x1="53.7" y1="260.44" x2="62.72" y2="260.44" gradientTransform="translate(93.71 -26.12) rotate(16.1)" xlink:href="#a"/><linearGradient id="an" x1="53.2" y1="260.44" x2="63.22" y2="260.44" gradientTransform="translate(93.71 -26.12) rotate(16.1)" xlink:href="#a"/><linearGradient id="ao" x1="76.19" y1="253.94" x2="85.2" y2="253.94" gradientTransform="translate(88.45 -40.91) rotate(16.1)" xlink:href="#a"/><linearGradient id="ap" x1="75.69" y1="253.94" x2="85.7" y2="253.94" gradientTransform="translate(88.45 -40.91) rotate(16.1)" xlink:href="#a"/></defs><title>Ativo 13</title><ellipse cx="21.52" cy="112.83" rx="4.55" ry="3.92" transform="translate(-8 1.82) rotate(-4.1)" style="fill:gray"/><ellipse cx="43.42" cy="91.05" rx="4.55" ry="3.92" transform="translate(-6.39 3.33) rotate(-4.1)" style="fill:gray"/><ellipse cx="20.08" cy="92.72" rx="4.55" ry="3.92" transform="translate(-6.57 1.67) rotate(-4.1)" style="fill:gray"/><ellipse cx="65.33" cy="69.27" rx="4.55" ry="3.92" transform="translate(-4.78 4.84) rotate(-4.1)" style="fill:gray"/><ellipse cx="41.98" cy="70.94" rx="4.55" ry="3.92" transform="translate(-4.96 3.18) rotate(-4.1)" style="fill:gray"/><ellipse cx="18.64" cy="72.61" rx="4.55" ry="3.92" transform="translate(-5.14 1.52) rotate(-4.1)" style="fill:gray"/><ellipse cx="87.24" cy="47.48" rx="4.55" ry="3.92" transform="translate(-3.17 6.35) rotate(-4.1)" style="fill:gray"/><ellipse cx="63.89" cy="49.16" rx="4.55" ry="3.92" transform="translate(-3.35 4.69) rotate(-4.1)" style="fill:gray"/><ellipse cx="40.54" cy="50.83" rx="4.55" ry="3.92" transform="matrix(1, -0.07, 0.07, 1, -3.53, 3.03)" style="fill:gray"/><ellipse cx="17.2" cy="52.5" rx="4.55" ry="3.92" transform="translate(-3.71 1.36) rotate(-4.1)" style="fill:gray"/><ellipse cx="109.15" cy="25.71" rx="4.55" ry="3.92" transform="translate(-1.56 7.86) rotate(-4.1)" style="fill:gray"/><ellipse cx="85.8" cy="27.38" rx="4.55" ry="3.92" transform="translate(-1.74 6.2) rotate(-4.1)" style="fill:gray"/><ellipse cx="62.45" cy="29.05" rx="4.55" ry="3.92" transform="translate(-1.92 4.53) rotate(-4.1)" style="fill:gray"/><ellipse cx="39.1" cy="30.72" rx="4.55" ry="3.92" transform="translate(-2.09 2.87) rotate(-4.1)" style="fill:gray"/><ellipse cx="15.76" cy="32.39" rx="4.55" ry="3.92" transform="translate(-2.27 1.21) rotate(-4.1)" style="fill:gray"/><ellipse cx="131.05" cy="3.92" rx="4.55" ry="3.92" transform="translate(0.05 9.37) rotate(-4.1)" style="fill:gray"/><ellipse cx="107.71" cy="5.6" rx="4.55" ry="3.92" transform="translate(-0.12 7.71) rotate(-4.1)" style="fill:gray"/><ellipse cx="84.36" cy="7.27" rx="4.55" ry="3.92" transform="translate(-0.3 6.04) rotate(-4.1)" style="fill:gray"/><ellipse cx="61.01" cy="8.94" rx="4.55" ry="3.92" transform="translate(-0.48 4.38) rotate(-4.1)" style="fill:gray"/><ellipse cx="37.66" cy="10.61" rx="4.55" ry="3.92" transform="translate(-0.66 2.72) rotate(-4.1)" style="fill:gray"/><ellipse cx="14.32" cy="12.28" rx="4.55" ry="3.92" transform="translate(-0.84 1.05) rotate(-4.1)" style="fill:gray"/><ellipse cx="31.85" cy="147.32" rx="4.55" ry="3.92" transform="translate(-85.9 53.24) rotate(-39.18)" style="stroke-miterlimit:10;fill:url(#a);stroke:url(#b)"/><ellipse cx="26.45" cy="177.73" rx="4.55" ry="3.92" transform="translate(-106.33 56.66) rotate(-39.18)" style="stroke-miterlimit:10;fill:url(#c);stroke:url(#d)"/><ellipse cx="44.59" cy="162.95" rx="4.55" ry="3.92" transform="translate(-92.91 64.8) rotate(-39.18)" style="stroke-miterlimit:10;fill:url(#e);stroke:url(#f)"/><ellipse cx="21.04" cy="208.15" rx="4.55" ry="3.92" transform="translate(-126.76 60.08) rotate(-39.18)" style="stroke-miterlimit:10;fill:url(#g);stroke:url(#h)"/><ellipse cx="39.18" cy="193.36" rx="4.55" ry="3.92" transform="translate(-113.34 68.22) rotate(-39.18)" style="stroke-miterlimit:10;fill:url(#i);stroke:url(#j)"/><ellipse cx="57.33" cy="178.57" rx="4.55" ry="3.92" transform="translate(-99.92 76.36) rotate(-39.18)" style="stroke-miterlimit:10;fill:url(#k);stroke:url(#l)"/><ellipse cx="15.63" cy="238.56" rx="4.55" ry="3.92" transform="translate(-147.19 63.51) rotate(-39.18)" style="stroke-miterlimit:10;fill:url(#m);stroke:url(#n)"/><ellipse cx="33.77" cy="223.78" rx="4.55" ry="3.92" transform="translate(-133.77 71.64) rotate(-39.18)" style="stroke-miterlimit:10;fill:url(#o);stroke:url(#p)"/><ellipse cx="51.92" cy="208.99" rx="4.55" ry="3.92" transform="translate(-120.35 79.78) rotate(-39.18)" style="stroke-miterlimit:10;fill:url(#q);stroke:url(#r)"/><ellipse cx="70.06" cy="194.2" rx="4.55" ry="3.92" transform="translate(-106.93 87.92) rotate(-39.18)" style="stroke-miterlimit:10;fill:url(#s);stroke:url(#t)"/><ellipse cx="10.22" cy="268.98" rx="4.55" ry="3.92" transform="translate(-167.63 66.93) rotate(-39.18)" style="stroke-miterlimit:10;fill:url(#u);stroke:url(#v)"/><ellipse cx="28.37" cy="254.19" rx="4.55" ry="3.92" transform="translate(-154.2 75.07) rotate(-39.18)" style="stroke-miterlimit:10;fill:url(#w);stroke:url(#x)"/><ellipse cx="46.51" cy="239.4" rx="4.55" ry="3.92" transform="translate(-140.78 83.2) rotate(-39.18)" style="stroke-miterlimit:10;fill:url(#y);stroke:url(#z)"/><ellipse cx="64.65" cy="224.62" rx="4.55" ry="3.92" transform="translate(-127.36 91.34) rotate(-39.18)" style="stroke-miterlimit:10;fill:url(#aa);stroke:url(#ab)"/><ellipse cx="82.8" cy="209.83" rx="4.55" ry="3.92" transform="translate(-113.94 99.48) rotate(-39.18)" style="stroke-miterlimit:10;fill:url(#ac);stroke:url(#ad)"/><ellipse cx="4.81" cy="299.39" rx="4.55" ry="3.92" transform="translate(-188.05 70.35) rotate(-39.18)" style="stroke-miterlimit:10;fill:url(#ae);stroke:url(#af)"/><ellipse cx="22.96" cy="284.61" rx="4.55" ry="3.92" transform="translate(-174.63 78.49) rotate(-39.18)" style="stroke-miterlimit:10;fill:url(#ag);stroke:url(#ah)"/><ellipse cx="41.1" cy="269.82" rx="4.55" ry="3.92" transform="translate(-161.21 86.62) rotate(-39.18)" style="stroke-miterlimit:10;fill:url(#ai);stroke:url(#aj)"/><ellipse cx="59.25" cy="255.03" rx="4.55" ry="3.92" transform="translate(-147.79 94.76) rotate(-39.18)" style="stroke-miterlimit:10;fill:url(#ak);stroke:url(#al)"/><ellipse cx="77.39" cy="240.24" rx="4.55" ry="3.92" transform="translate(-134.37 102.9) rotate(-39.18)" style="stroke-miterlimit:10;fill:url(#am);stroke:url(#an)"/><ellipse cx="95.53" cy="225.46" rx="4.55" ry="3.92" transform="translate(-120.95 111.04) rotate(-39.18)" style="stroke-miterlimit:10;fill:url(#ao);stroke:url(#ap)"/></svg>