<svg xmlns="http://www.w3.org/2000/svg" viewBox="0 0 219.55 51.44"><title>Ativo 14</title><path d="M23.63,26.37V40.29H27a.76.76,0,0,1,.5.13.49.49,0,0,1,0,.71.73.73,0,0,1-.5.14H19.27a.73.73,0,0,1-.5-.14.49.49,0,0,1,0-.71.76.76,0,0,1,.5-.13h3.38V27.73l-3.21,1a1.36,1.36,0,0,1-.34.07.45.45,0,0,1-.32-.15.47.47,0,0,1-.15-.35.53.53,0,0,1,.12-.33,1.13,1.13,0,0,1,.39-.2Z" style="fill:#1a1a1a"/><path d="M35.6,37.74h3.2l-3.48,6.47q-.32.59-.76.59a.7.7,0,0,1-.7-.7,1.07,1.07,0,0,1,0-.26Z" style="fill:#1a1a1a"/><path d="M56.47,32.71v2.44a7.72,7.72,0,0,1-1.51,5,3.69,3.69,0,0,1-3,1.45,3.93,3.93,0,0,1-1.63-.35,3.74,3.74,0,0,1-1.31-1,5.54,5.54,0,0,1-.74-1.24,8.44,8.44,0,0,1-.58-1.57,9.17,9.17,0,0,1-.27-2.36V32.71a7.74,7.74,0,0,1,1.51-5,3.7,3.7,0,0,1,3-1.45,3.93,3.93,0,0,1,1.64.35,3.76,3.76,0,0,1,1.3,1,5.41,5.41,0,0,1,.75,1.25,9.62,9.62,0,0,1,.59,1.56A9.63,9.63,0,0,1,56.47,32.71Zm-1,.13a8.31,8.31,0,0,0-.39-2.6,7.54,7.54,0,0,0-.88-1.92,2.64,2.64,0,0,0-.76-.7,2.81,2.81,0,0,0-1.5-.41,2.87,2.87,0,0,0-2.59,1.69,8,8,0,0,0-.94,3.94V35a8.36,8.36,0,0,0,.39,2.6,7.25,7.25,0,0,0,.9,1.92,2.56,2.56,0,0,0,.75.69,2.77,2.77,0,0,0,1.51.42A2.86,2.86,0,0,0,54.55,39,8,8,0,0,0,55.48,35Z" style="fill:#1a1a1a"/><path d="M68.06,34.91l-6.84,2.22-.18,0a.23.23,0,0,1-.17-.08.26.26,0,0,1-.07-.18.31.31,0,0,1,.06-.18.47.47,0,0,1,.2-.11L67.9,34.4l.19,0a.22.22,0,0,1,.16.08.26.26,0,0,1,.07.18.3.3,0,0,1-.06.18A.47.47,0,0,1,68.06,34.91Zm-2.39-2.56A2.21,2.21,0,0,1,65,34a2.22,2.22,0,0,1-3.18,0,2.31,2.31,0,0,1,0-3.23,2.24,2.24,0,0,1,3.18,0A2.2,2.2,0,0,1,65.67,32.35Zm-.53,0a1.69,1.69,0,0,0-.51-1.24,1.71,1.71,0,0,0-2.43,0,1.77,1.77,0,0,0,0,2.48,1.71,1.71,0,0,0,2.43,0A1.69,1.69,0,0,0,65.15,32.35ZM68,39.21a2.27,2.27,0,0,1-2.26,2.28,2.16,2.16,0,0,1-1.59-.67,2.3,2.3,0,0,1,0-3.23,2.23,2.23,0,0,1,3.19,0A2.21,2.21,0,0,1,68,39.21Zm-.54,0A1.69,1.69,0,0,0,66.91,38a1.71,1.71,0,0,0-2.43,0,1.77,1.77,0,0,0,0,2.47,1.7,1.7,0,0,0,2.43,0A1.69,1.69,0,0,0,67.41,39.21Z" style="fill:#4d4d4d"/><path d="M174.86,26.37V40.29h3.38a.76.76,0,0,1,.5.13.49.49,0,0,1,0,.71.73.73,0,0,1-.5.14H170.5a.73.73,0,0,1-.5-.14.49.49,0,0,1,0-.71.76.76,0,0,1,.5-.13h3.38V27.73l-3.21,1a1.36,1.36,0,0,1-.34.07.45.45,0,0,1-.32-.15.47.47,0,0,1-.15-.35A.53.53,0,0,1,170,28a1.13,1.13,0,0,1,.39-.2Z" style="fill:#1a1a1a"/><path d="M186.82,37.74H190l-3.48,6.47q-.32.59-.76.59a.7.7,0,0,1-.7-.7,1.07,1.07,0,0,1,0-.26Z" style="fill:#1a1a1a"/><path d="M205.2,33.65a4.44,4.44,0,0,1,1.86,1.58,3.83,3.83,0,0,1,.63,2.1,4.08,4.08,0,0,1-1.31,3,4.62,4.62,0,0,1-6.37,0,4.08,4.08,0,0,1-1.31-3,3.81,3.81,0,0,1,.63-2.09,4.5,4.5,0,0,1,1.87-1.59,5.05,5.05,0,0,1-1.57-1.29,3.52,3.52,0,0,1-.68-2.1,3.83,3.83,0,0,1,1.25-2.83,4.34,4.34,0,0,1,6,0,3.84,3.84,0,0,1,1.24,2.83,3.47,3.47,0,0,1-.68,2.09A4.82,4.82,0,0,1,205.2,33.65Zm1.5,3.7a3,3,0,0,0-1-2.26,3.75,3.75,0,0,0-5,0,3,3,0,0,0-1,2.25,3.13,3.13,0,0,0,1,2.32,3.67,3.67,0,0,0,5,0A3.12,3.12,0,0,0,206.7,37.35Zm-.27-7.05a2.91,2.91,0,0,0-.94-2.17,3.38,3.38,0,0,0-4.62,0,2.91,2.91,0,0,0-.94,2.16,2.66,2.66,0,0,0,.93,2,3.56,3.56,0,0,0,4.64,0A2.65,2.65,0,0,0,206.43,30.3Z" style="fill:#1a1a1a"/><path d="M219.29,34.91l-6.84,2.22-.18,0a.23.23,0,0,1-.17-.08.26.26,0,0,1-.07-.18.31.31,0,0,1,.06-.18.47.47,0,0,1,.2-.11l6.84-2.22.19,0a.22.22,0,0,1,.16.08.26.26,0,0,1,.07.18.3.3,0,0,1-.06.18A.47.47,0,0,1,219.29,34.91Zm-2.39-2.56a2.21,2.21,0,0,1-.66,1.62,2.22,2.22,0,0,1-3.18,0,2.31,2.31,0,0,1,0-3.23,2.24,2.24,0,0,1,3.18,0A2.2,2.2,0,0,1,216.9,32.35Zm-.53,0a1.69,1.69,0,0,0-.51-1.24,1.71,1.71,0,0,0-2.43,0,1.77,1.77,0,0,0,0,2.48,1.71,1.71,0,0,0,2.43,0A1.69,1.69,0,0,0,216.37,32.35Zm2.8,6.86a2.27,2.27,0,0,1-2.26,2.28,2.16,2.16,0,0,1-1.59-.67,2.3,2.3,0,0,1,0-3.23,2.23,2.23,0,0,1,3.19,0A2.21,2.21,0,0,1,219.17,39.21Zm-.54,0a1.69,1.69,0,0,0-.51-1.24,1.71,1.71,0,0,0-2.43,0,1.77,1.77,0,0,0,0,2.47,1.7,1.7,0,0,0,2.43,0A1.69,1.69,0,0,0,218.64,39.21Z" style="fill:#4d4d4d"/><line y1="1.96" x2="207.68" y2="1" style="fill:#1a1a1a;stroke:#1a1a1a;stroke-miterlimit:10;stroke-width:2px"/><line x1="103.3" y1="2.49" x2="103.3" y2="51.44" style="fill:#1a1a1a;stroke:#1a1a1a;stroke-miterlimit:10;stroke-width:2px"/></svg>