<svg xmlns="http://www.w3.org/2000/svg" viewBox="0 0 56.54 62.25"><title>Ativo 3</title><path d="M43.62,33.25l-.55.42-.57.42q-.6.42-1.23.81L32.61,50.56l-1.73-9,2.56-3.62-.94.16a24.49,24.49,0,0,1-2.47.26c-.46,0-.92,0-1.38,0a25,25,0,0,1-5.16-.54l2.6,3.7-1.62,9.17-9.6-16.59q-.66-.46-1.29-1l-.17.13C.56,43.07.74,60.17.75,60.89v.61h55l0-.64C54.81,41.1,45.83,34.57,43.62,33.25Z" style="fill:#fff;stroke:#7ac943;stroke-miterlimit:10;stroke-width:1.5px"/><path d="M28.66.75C17.28.75,8,8.89,8,18.9s9.26,18.15,20.64,18.15S49.3,28.91,49.3,18.9,40,.75,28.66.75Z" style="fill:#fff;stroke:#7ac943;stroke-miterlimit:10;stroke-width:1.5px"/></svg>