<svg xmlns="http://www.w3.org/2000/svg" viewBox="0 0 28.75 27.33"><title>Ativo 67</title><polygon points="1.09 22.27 10.14 13.66 1.09 5.06 5.32 1.04 14.38 9.64 23.42 1.03 27.66 5.06 18.61 13.66 27.66 22.26 23.43 26.29 14.38 17.69 5.33 26.29 1.09 22.27" style="fill:#fff"/><path d="M23.42,2.07l3.15,3-7.91,7.52-1.14,1.09,1.14,1.09,7.91,7.51-3.15,3-8-7.62-1-1-1,1-8,7.62-3.15-3,7.91-7.52,1.14-1.09-1.14-1.09L2.18,5.06l3.15-3,8,7.62,1,1,1-1,8-7.62m0-2.07-9,8.6L5.32,0,0,5.06l9.05,8.6-9,8.6,5.32,5.06,9-8.6,9.05,8.6,5.32-5.06-9.05-8.6,9-8.6L23.42,0Z" style="fill:#80bc49"/></svg>