<svg xmlns="http://www.w3.org/2000/svg" xmlns:xlink="http://www.w3.org/1999/xlink" viewBox="0 0 70.67 71.33"><defs><radialGradient id="a" cx="-50.53" cy="713.87" r="24.81" gradientTransform="translate(107.31 -990.73) scale(1.42 1.44)" gradientUnits="userSpaceOnUse"><stop offset="0.55" stop-color="#a3a4a6"/><stop offset="0.57" stop-color="#a9aaab" stop-opacity="0.94"/><stop offset="0.64" stop-color="#c3c3c5" stop-opacity="0.65"/><stop offset="0.72" stop-color="#d8d9da" stop-opacity="0.42"/><stop offset="0.79" stop-color="#e9eaea" stop-opacity="0.24"/><stop offset="0.87" stop-color="#f5f5f6" stop-opacity="0.11"/><stop offset="0.94" stop-color="#fdfdfd" stop-opacity="0.03"/><stop offset="1" stop-color="#fff" stop-opacity="0"/></radialGradient><radialGradient id="b" cx="-49.18" cy="692" r="43.92" gradientTransform="translate(107.31 -990.73) scale(1.42 1.44)" gradientUnits="userSpaceOnUse"><stop offset="0.13" stop-color="#fff"/><stop offset="0.34" stop-color="#fcfcfd"/><stop offset="0.52" stop-color="#f1f5f7"/><stop offset="0.69" stop-color="#dfe7ec"/><stop offset="0.85" stop-color="#c6d5dd"/><stop offset="1" stop-color="#a8becb"/></radialGradient></defs><title>Ativo 6</title><g style="isolation:isolate"><ellipse cx="35.33" cy="35.67" rx="35.33" ry="35.67" style="fill:url(#a)"/><ellipse cx="35.33" cy="28.62" rx="25.48" ry="25.72" style="fill:url(#b)"/><path d="M37.9,21.92c.63,0,1.25,0,1.88,0H40V18.63c-.33,0-.68-.08-1-.1-.64,0-1.29-.06-1.93,0a4.7,4.7,0,0,0-2.72.85,4.12,4.12,0,0,0-1.64,2.75,9.58,9.58,0,0,0-.11,1.41c0,.74,0,1.48,0,2.22V26H29.48v3.67h3.1v9.24h3.79V29.67h3.09L39.94,26H36.35s0-1.82,0-2.61C36.41,22.28,37,22,37.9,21.92Z" style="fill:#4c76be;fill-rule:evenodd;mix-blend-mode:multiply"/></g></svg>