<svg xmlns="http://www.w3.org/2000/svg" xmlns:xlink="http://www.w3.org/1999/xlink" viewBox="0 0 72.01 74.67"><defs><radialGradient id="a" cx="-83.97" cy="857.29" r="24.81" gradientTransform="translate(157.87 -1252.86) scale(1.45 1.5)" gradientUnits="userSpaceOnUse"><stop offset="0.55" stop-color="#a3a4a6"/><stop offset="0.57" stop-color="#a9aaab" stop-opacity="0.94"/><stop offset="0.64" stop-color="#c3c3c5" stop-opacity="0.65"/><stop offset="0.72" stop-color="#d8d9da" stop-opacity="0.42"/><stop offset="0.79" stop-color="#e9eaea" stop-opacity="0.24"/><stop offset="0.87" stop-color="#f5f5f6" stop-opacity="0.11"/><stop offset="0.94" stop-color="#fdfdfd" stop-opacity="0.03"/><stop offset="1" stop-color="#fff" stop-opacity="0"/></radialGradient><radialGradient id="b" cx="-82.62" cy="835.42" r="43.92" gradientTransform="translate(157.87 -1252.86) scale(1.45 1.5)" gradientUnits="userSpaceOnUse"><stop offset="0.13" stop-color="#fff"/><stop offset="0.34" stop-color="#fcfcfd"/><stop offset="0.52" stop-color="#f1f5f7"/><stop offset="0.69" stop-color="#dfe7ec"/><stop offset="0.85" stop-color="#c6d5dd"/><stop offset="1" stop-color="#a8becb"/></radialGradient></defs><title>Ativo 9</title><ellipse cx="36" cy="37.33" rx="36" ry="37.33" style="fill:url(#a)"/><ellipse cx="36" cy="29.96" rx="25.96" ry="26.92" style="fill:url(#b)"/><path d="M44.8,25.17A5,5,0,0,0,43.35,22a4.87,4.87,0,0,0-3.28-1.38,62.37,62.37,0,0,0-8.85.1,4.58,4.58,0,0,0-3.87,3.61c-.43,1.58-.34,8.86-.09,10.42a4.64,4.64,0,0,0,3.6,4,51.24,51.24,0,0,0,9.91.07,4.61,4.61,0,0,0,3.92-3.71C45.09,33.53,44.94,26.63,44.8,25.17Zm-1.65,9.28a3.08,3.08,0,0,1-2.85,2.8c-1.44.16-7.89.25-9.23-.13a3,3,0,0,1-2.23-2.62,64.38,64.38,0,0,1,0-9.37,3.08,3.08,0,0,1,2.84-2.79,60.88,60.88,0,0,1,8.81,0,3.09,3.09,0,0,1,2.7,3A69.07,69.07,0,0,1,43.15,34.45ZM36,25a4.76,4.76,0,1,0,4.59,4.76A4.67,4.67,0,0,0,36,25Zm0,7.84a3.08,3.08,0,1,1,3-3.07A3,3,0,0,1,36,32.87Zm5.87-8a1.08,1.08,0,1,1-1.06-1.12A1.09,1.09,0,0,1,41.84,24.86Z" style="fill:#ea3b58"/></svg>