<svg xmlns="http://www.w3.org/2000/svg" viewBox="0 0 60.07 60.91"><title>Ativo 7</title><path d="M55.48.75a36.16,36.16,0,0,0-5.55.54A16.7,16.7,0,0,0,45.08,2.6a22,22,0,0,0-4.41,3.9,84.67,84.67,0,0,0-7.42,9.55c-3,4.27-5.58,8.43-7.78,12.36-2,3.52-4,7.38-6,11.5a20.53,20.53,0,0,0-4.4-4.25,9.88,9.88,0,0,0-5.49-2,9.76,9.76,0,0,0-5.68,2.27C1.82,37.51.75,39.3.75,41.25c0,1.47.91,3.18,2.79,5.24a65.5,65.5,0,0,1,6.55,8.26,33.77,33.77,0,0,0,2.52,3.57,5.2,5.2,0,0,0,2.12,1.4,13.45,13.45,0,0,0,4.13.44c2.7,0,4.54-.29,5.62-.88A6.42,6.42,0,0,0,27,56.77a60.11,60.11,0,0,0,2.61-5.88A144.79,144.79,0,0,1,41.81,27.54c5.05-8,10-14.21,14.7-18.55a13.63,13.63,0,0,0,2.21-2.35,3.94,3.94,0,0,0,.6-2.16,3.65,3.65,0,0,0-1.07-2.63A3.73,3.73,0,0,0,55.48.75Z" style="fill:#fff;stroke:#7ac943;stroke-miterlimit:10;stroke-width:1.5px"/></svg>