<svg xmlns="http://www.w3.org/2000/svg" xmlns:xlink="http://www.w3.org/1999/xlink" viewBox="0 0 69.49 69.77"><defs><radialGradient id="a" cx="-76.75" cy="928.01" r="24.81" gradientTransform="translate(142.24 -1270.08) scale(1.4 1.41)" gradientUnits="userSpaceOnUse"><stop offset="0.55" stop-color="#a3a4a6"/><stop offset="0.57" stop-color="#a9aaab" stop-opacity="0.94"/><stop offset="0.64" stop-color="#c3c3c5" stop-opacity="0.65"/><stop offset="0.72" stop-color="#d8d9da" stop-opacity="0.42"/><stop offset="0.79" stop-color="#e9eaea" stop-opacity="0.24"/><stop offset="0.87" stop-color="#f5f5f6" stop-opacity="0.11"/><stop offset="0.94" stop-color="#fdfdfd" stop-opacity="0.03"/><stop offset="1" stop-color="#fff" stop-opacity="0"/></radialGradient><radialGradient id="b" cx="-75.4" cy="906.14" r="43.92" gradientTransform="translate(142.24 -1270.08) scale(1.4 1.41)" gradientUnits="userSpaceOnUse"><stop offset="0.13" stop-color="#fff"/><stop offset="0.34" stop-color="#fcfcfd"/><stop offset="0.52" stop-color="#f1f5f7"/><stop offset="0.69" stop-color="#dfe7ec"/><stop offset="0.85" stop-color="#c6d5dd"/><stop offset="1" stop-color="#a8becb"/></radialGradient></defs><title>Ativo 8</title><g style="isolation:isolate"><ellipse cx="34.75" cy="34.88" rx="34.75" ry="34.88" style="fill:url(#a)"/><ellipse cx="34.75" cy="27.99" rx="25.05" ry="25.15" style="fill:url(#b)"/><g style="mix-blend-mode:multiply"><path d="M27.57,24.61H31.2V36.33H27.57Zm1.82-5.83a2.11,2.11,0,1,1-2.11,2.11,2.11,2.11,0,0,1,2.11-2.11" style="fill:#0b86ca"/><path d="M33.48,24.61H37v1.6h0a3.81,3.81,0,0,1,3.44-1.89c3.67,0,4.35,2.43,4.35,5.58v6.43H41.17v-5.7c0-1.36,0-3.11-1.89-3.11s-2.18,1.48-2.18,3v5.8H33.48Z" style="fill:#0b86ca"/></g></g></svg>