<svg xmlns="http://www.w3.org/2000/svg" viewBox="0 0 64.92 44.79"><title>Ativo 2</title><path d="M.87,40.55l27.77-16.8L.75,6.88V39.53A4.64,4.64,0,0,0,.87,40.55Z" style="fill:#fff;stroke:#7ac943;stroke-miterlimit:10;stroke-width:1.5px"/><path d="M29.87,24.49,1.34,41.75A4.36,4.36,0,0,0,5.15,44H59.78a4.39,4.39,0,0,0,4-2.64L35.82,24.49l-3,1.8Z" style="fill:#fff;stroke:#7ac943;stroke-miterlimit:10;stroke-width:1.5px"/><path d="M64.17,39.53V7.34L37,23.75,64.11,40.13A4.51,4.51,0,0,0,64.17,39.53Z" style="fill:#fff;stroke:#7ac943;stroke-miterlimit:10;stroke-width:1.5px"/><path d="M5.15.75a4.45,4.45,0,0,0-4.4,4.5v.14L32.85,24.8,64.17,5.86v-.6a4.45,4.45,0,0,0-4.4-4.5Z" style="fill:#fff;stroke:#7ac943;stroke-miterlimit:10;stroke-width:1.5px"/></svg>