<svg xmlns="http://www.w3.org/2000/svg" viewBox="0 0 82.17 78.6"><title>Ativo 5</title><circle cx="63.72" cy="14.15" r="7.6" style="fill:#fff;stroke:#7ac943;stroke-miterlimit:10;stroke-width:1.5px"/><path d="M63.86.75A17.56,17.56,0,0,0,47.08,23.49L41.84,26a22.37,22.37,0,1,0-3.79,28.83l3.22,2.67A13.39,13.39,0,1,0,44.33,54l-3.15-2.62a22.31,22.31,0,0,0,3-20.69l5.18-2.49A17.56,17.56,0,1,0,63.86.75ZM48.49,55.06A10.3,10.3,0,0,1,60,71.8c-.81-3.85-2.55-5.25-3.05-5.58l-.15.13-.16.14-.34.26-2.34,4.94-.51-2.82.69-1.14-.26.05a6.55,6.55,0,0,1-.68.09l-.38,0a6.22,6.22,0,0,1-1.43-.16l.73,1.15-.42,2.88L49,66.58l-.36-.3,0,0a10.28,10.28,0,0,0-3,5.43,10.3,10.3,0,0,1,2.92-16.7Zm-19-10.26c-.15.18-3,2.07-3,2.07l1.42,1.94-4.5,3.53v0h0v0l-4.5-3.53,1.42-1.94s-2.89-1.88-3-2.07S18.58,43,18.58,43l4.83,9.33L28.23,43S29.78,44.48,29.52,44.8Zm5.35,5.86a18.61,18.61,0,0,0-2.37-6.27,31.84,31.84,0,0,0,.84-9.93c-.06-.43-.12-.84-.19-1.23a8.68,8.68,0,0,0-.11-1A13.93,13.93,0,0,0,32,28.8a8.17,8.17,0,0,0-3.17-4.08,8.46,8.46,0,0,0-5.24-1.79,9.28,9.28,0,0,0-2.89.46,7,7,0,0,0-4.53,3,9.52,9.52,0,0,0-1.07,2.07,9.24,9.24,0,0,0-.63,2c-.42,1.58-.72,3.35-1,5.17a41.93,41.93,0,0,1-2.1,8.64.24.24,0,0,0,0,.24.25.25,0,0,0,.23.09,4.79,4.79,0,0,0,2.69-1.21,6.16,6.16,0,0,1-2.62,2.5.25.25,0,0,0-.13.2.24.24,0,0,0,.1.21,9.67,9.67,0,0,0,1,.59,20.8,20.8,0,0,0-1.29,3.83,17.15,17.15,0,1,1,23.51,0ZM73.27,27.93c-1-5.35-3.37-7.31-4-7.77l-.2.18-.21.18-.45.34-3.19,6.55-.63-3.78.94-1.52-.35.07a8.45,8.45,0,0,1-.91.11l-.51,0a8.1,8.1,0,0,1-1.9-.23l1,1.55-.6,3.84-3.53-6.94c-.16-.13-.32-.26-.47-.41l-.07.06A13.76,13.76,0,0,0,54,27.45a13.47,13.47,0,1,1,19.29.48Z" style="fill:#fff;stroke:#7ac943;stroke-miterlimit:10;stroke-width:1.5px"/><circle cx="52.74" cy="61.76" r="5.69" transform="matrix(1, -0.01, 0.01, 1, -0.65, 0.56)" style="fill:#fff;stroke:#7ac943;stroke-miterlimit:10;stroke-width:1.5px"/><circle cx="23.4" cy="52.33" r="0.01" style="fill:#fff;stroke:#7ac943;stroke-miterlimit:10;stroke-width:1.5px"/></svg>