<svg xmlns="http://www.w3.org/2000/svg" viewBox="0 0 58.77 58.53"><title>Ativo 1</title><path d="M18.8,25.45l1.75-1.9A7.85,7.85,0,0,0,20,12.35L17,9.73a8.11,8.11,0,0,0-11.34.56L3.95,12.19a7.84,7.84,0,0,0-.64.8l-.08.09C1.58,14.47.17,17.85,1,22A44.82,44.82,0,0,0,41,57.72a11.43,11.43,0,0,0,6.9-1.42,8,8,0,0,0,2-1.56l1.75-1.91a7.86,7.86,0,0,0-.57-11.19L48.12,39a8.1,8.1,0,0,0-11.34.56L35,41.48a7.85,7.85,0,0,0-1.66,2.79l-.16.46-.46-.18A33.65,33.65,0,0,1,14.89,28.37l-.25-.49.53-.16A8,8,0,0,0,18.8,25.45Z" style="fill:#fff;stroke:#7ac943;stroke-miterlimit:10;stroke-width:1.5px"/><path d="M28.61,2.6a1.86,1.86,0,0,0,1.87,1.85A23.66,23.66,0,0,1,54.27,27.92a1.87,1.87,0,0,0,3.74,0A27.38,27.38,0,0,0,30.48.75,1.86,1.86,0,0,0,28.61,2.6Z" style="fill:#fff;stroke:#7ac943;stroke-miterlimit:10;stroke-width:1.5px"/><path d="M28.31,11.63a1.86,1.86,0,0,0,1.87,1.85A14.85,14.85,0,0,1,45.11,28.22a1.87,1.87,0,0,0,3.74,0A18.58,18.58,0,0,0,30.18,9.79,1.86,1.86,0,0,0,28.31,11.63Z" style="fill:#fff;stroke:#7ac943;stroke-miterlimit:10;stroke-width:1.5px"/></svg>