<svg xmlns="http://www.w3.org/2000/svg" viewBox="0 0 55.71 82.97"><title>Ativo 4</title><path d="M21.44,23.44h0a1.63,1.63,0,0,1-.66.3,3.25,3.25,0,0,1-.77.1,3,3,0,0,1-1.18-.23,2.86,2.86,0,0,1-.94-.63,2.82,2.82,0,0,1-.61-.94A3,3,0,0,1,17,20.88a3,3,0,0,1,.24-1.2,2.78,2.78,0,0,1,.66-.94,3,3,0,0,1,1-.62,3.64,3.64,0,0,1,2.51,0,3.05,3.05,0,0,1,1,.62,2.8,2.8,0,0,1,.66.94,3,3,0,0,1,.24,1.2,3.07,3.07,0,0,1-.08.72,3.72,3.72,0,0,1-.22.64,6.43,6.43,0,0,1-.29.58l-.29.52-2.6,4.33h-1Zm-1.25-.3a2.21,2.21,0,0,0,.87-.17,2.26,2.26,0,0,0,.72-.48,2.28,2.28,0,0,0,.48-.71,2.19,2.19,0,0,0,.18-.88,2.48,2.48,0,0,0-.16-.92,2.09,2.09,0,0,0-.46-.71,2.07,2.07,0,0,0-.71-.46,2.65,2.65,0,0,0-1.83,0A2,2,0,0,0,18.11,20a2.47,2.47,0,0,0-.16.92,2.19,2.19,0,0,0,.18.88A2.27,2.27,0,0,0,19.31,23,2.2,2.2,0,0,0,20.2,23.14Z" style="fill:#fff;stroke:#7ac943;stroke-miterlimit:10;stroke-width:1.5px"/><path d="M24.84,27.1a.65.65,0,1,1,.19.46A.63.63,0,0,1,24.84,27.1Z" style="fill:#fff;stroke:#7ac943;stroke-miterlimit:10;stroke-width:1.5px"/><path d="M31.71,25.31H27.56v-1l3.84-6.28h1.13v6.51H34v.73H32.53v2.36h-.81Zm0-6.35h0l-3.39,5.62h3.42Z" style="fill:#fff;stroke:#7ac943;stroke-miterlimit:10;stroke-width:1.5px"/><path d="M37.85,19.2h0L36.1,20.63l-.5-.62L38,18.06h.69v9.61h-.81Z" style="fill:#fff;stroke:#7ac943;stroke-miterlimit:10;stroke-width:1.5px"/><circle cx="27.85" cy="75.45" r="2.82" style="fill:#fff;stroke:#7ac943;stroke-miterlimit:10;stroke-width:1.5px"/><rect x="7.72" y="9.97" width="40.27" height="59.65" style="fill:#fff;stroke:#7ac943;stroke-miterlimit:10;stroke-width:1.5px"/><path d="M27.85,71.79a3.6,3.6,0,1,0,2.55,1.05A3.58,3.58,0,0,0,27.85,71.79Zm0,6.48a2.82,2.82,0,1,1,2.82-2.82A2.82,2.82,0,0,1,27.85,78.27Z" style="fill:#fff;stroke:#7ac943;stroke-miterlimit:10;stroke-width:1.5px"/><path d="M49.31.75H6.39A5.64,5.64,0,0,0,.75,6.39V76.58a5.64,5.64,0,0,0,5.64,5.64H49.31A5.64,5.64,0,0,0,55,76.58V6.39A5.64,5.64,0,0,0,49.31.75ZM27.85,2.65a.79.79,0,1,1-.79.79A.79.79,0,0,1,27.85,2.65Zm-3,3.19h5.92a.79.79,0,0,1,0,1.57H24.89a.79.79,0,0,1,0-1.57ZM22.25,6a.61.61,0,1,1-.61.61A.61.61,0,0,1,22.25,6Zm5.6,73.33a4,4,0,1,1,4-4A4,4,0,0,1,27.85,79.34ZM48,69.61H7.72V10H48Z" style="fill:#fff;stroke:#7ac943;stroke-miterlimit:10;stroke-width:1.5px"/></svg>