<svg xmlns="http://www.w3.org/2000/svg" xmlns:xlink="http://www.w3.org/1999/xlink" viewBox="0 0 71.33 76"><defs><radialGradient id="a" cx="-17.15" cy="702.2" r="24.81" gradientTransform="translate(60.32 -1037.67) scale(1.44 1.53)" gradientUnits="userSpaceOnUse"><stop offset="0.55" stop-color="#a3a4a6"/><stop offset="0.57" stop-color="#a9aaab" stop-opacity="0.94"/><stop offset="0.64" stop-color="#c3c3c5" stop-opacity="0.65"/><stop offset="0.72" stop-color="#d8d9da" stop-opacity="0.42"/><stop offset="0.79" stop-color="#e9eaea" stop-opacity="0.24"/><stop offset="0.87" stop-color="#f5f5f6" stop-opacity="0.11"/><stop offset="0.94" stop-color="#fdfdfd" stop-opacity="0.03"/><stop offset="1" stop-color="#fff" stop-opacity="0"/></radialGradient><radialGradient id="b" cx="-15.8" cy="680.33" r="43.92" gradientTransform="translate(60.32 -1037.67) scale(1.44 1.53)" gradientUnits="userSpaceOnUse"><stop offset="0.13" stop-color="#fff"/><stop offset="0.34" stop-color="#fcfcfd"/><stop offset="0.52" stop-color="#f1f5f7"/><stop offset="0.69" stop-color="#dfe7ec"/><stop offset="0.85" stop-color="#c6d5dd"/><stop offset="1" stop-color="#a8becb"/></radialGradient></defs><title>Ativo 7</title><g style="isolation:isolate"><ellipse cx="35.67" cy="38" rx="35.67" ry="38" style="fill:url(#a)"/><ellipse cx="35.67" cy="30.49" rx="25.72" ry="27.4" style="fill:url(#b)"/><path d="M33,33a3.84,3.84,0,0,1-3.62-2.25,4.62,4.62,0,0,0,1.67,0l.06,0a3.94,3.94,0,0,1-2.52-1.49,2.77,2.77,0,0,1-.57-1.72,4.44,4.44,0,0,0,1.73.39,3.3,3.3,0,0,1-1.6-2,2.75,2.75,0,0,1,.42-2.35,12,12,0,0,0,8,3.38c0-.13,0-.24-.06-.35a2.74,2.74,0,0,1,.57-2.12A3.83,3.83,0,0,1,39.76,23a4.28,4.28,0,0,1,3.4.9.22.22,0,0,0,.21.05,8.86,8.86,0,0,0,2.26-.72l.05,0h0A3.49,3.49,0,0,1,44,25a8.64,8.64,0,0,0,2.16-.49h0c-.15.16-.29.33-.45.49a7.22,7.22,0,0,1-1.41,1.12.11.11,0,0,0-.06.1,7.48,7.48,0,0,1-.07,1.44,8.37,8.37,0,0,1-1,2.88,9.49,9.49,0,0,1-2.1,2.55,11.08,11.08,0,0,1-5.34,2.48,13.74,13.74,0,0,1-2.16.21,12.67,12.67,0,0,1-6.22-1.39l-.09,0a9.29,9.29,0,0,0,3.89-.45A8.11,8.11,0,0,0,33,33Z" style="fill:#00c7ff;fill-rule:evenodd;mix-blend-mode:multiply"/></g></svg>